<svg id="Capa_1" enable-background="new 0 0 512 512" height="512" viewBox="0 0 512 512" width="512" xmlns="http://www.w3.org/2000/svg"><g><path d="m448.891 504.5h-385.782c-30.712 0-55.609-24.897-55.609-55.609v-385.782c0-30.712 24.897-55.609 55.609-55.609h385.782c30.712 0 55.609 24.897 55.609 55.609v385.782c0 30.712-24.897 55.609-55.609 55.609z" fill="#f9f6f9"/><path d="m448.891 7.5h-54.294c30.712 0 55.609 24.897 55.609 55.609v385.782c0 30.712-24.897 55.609-55.609 55.609h54.294c30.712 0 55.609-24.897 55.609-55.609v-385.782c0-30.712-24.897-55.609-55.609-55.609z" fill="#dddaec"/><path d="m63.109 470.5c-11.915 0-21.609-9.694-21.609-21.609v-385.782c0-11.915 9.694-21.609 21.609-21.609h385.782c11.915 0 21.609 9.694 21.609 21.609v385.782c0 11.915-9.694 21.609-21.609 21.609z" fill="#80b4fb"/><path d="m448.891 41.5h-3.04c2.804 6.643 4.356 13.945 4.356 21.609v385.782c0 7.664-1.551 14.966-4.356 21.609h3.04c11.915 0 21.609-9.694 21.609-21.609v-385.782c0-11.915-9.694-21.609-21.609-21.609z" fill="#61a2f9"/><circle cx="133.638" cy="140.097" fill="#dddaec" r="31.059"/><path d="m146.7 420.405h-26.125c-6.335 0-11.572-4.938-11.945-11.262l-7.233-122.739h64.48l-7.233 122.739c-.372 6.324-5.609 11.262-11.944 11.262z" fill="#f9f6f9"/><path d="m170.882 298.268h-74.488c-7.005 0-12.683-5.679-12.683-12.683v-64.502c0-27.574 22.353-49.927 49.927-49.927 27.574 0 49.927 22.353 49.927 49.927v64.502c0 7.004-5.679 12.683-12.683 12.683z" fill="#f9f6f9"/><path d="m133.638 171.156c-10.056 0-19.409 2.983-27.246 8.098 13.652 8.91 22.682 24.311 22.682 41.829v64.502c0 7.005-5.678 12.683-12.683 12.683h54.491c7.005 0 12.683-5.679 12.683-12.683v-64.502c0-27.574-22.353-49.927-49.927-49.927z" fill="#dddaec"/><path d="m371.062 420.405h-26.125c-6.335 0-11.572-4.938-11.945-11.262l-7.233-122.739h64.48l-7.233 122.739c-.372 6.324-5.609 11.262-11.944 11.262z" fill="#f9f6f9"/><circle cx="358" cy="140.097" fill="#dddaec" r="31.059"/><path d="m407.927 280.614h-99.854v-59.532c0-27.574 22.353-49.927 49.927-49.927 27.574 0 49.927 22.353 49.927 49.927z" fill="#f9f6f9"/><path d="m308.073 280.614-23.094 48.996c-2.561 5.434 1.403 11.685 7.41 11.685h131.222c6.007 0 9.972-6.251 7.41-11.685l-23.094-48.996z" fill="#dddaec"/><path d="m358 171.156c-9.943 0-19.198 2.918-26.98 7.928 13.8 8.883 22.947 24.368 22.947 41.999v59.532h53.96v-59.532c0-27.574-22.353-49.927-49.927-49.927z" fill="#dddaec"/><path d="m431.021 329.611-23.095-48.996h-53.96l23.094 48.996c2.562 5.434-1.403 11.685-7.41 11.685h53.96c6.008 0 9.973-6.251 7.411-11.685z" fill="#d0cee7"/><path d="m448.892 0h-385.784c-34.797 0-63.108 28.311-63.108 63.109v385.782c0 34.798 28.311 63.109 63.108 63.109h385.783c34.798 0 63.109-28.311 63.109-63.109v-385.782c0-34.798-28.311-63.109-63.108-63.109zm48.108 448.891c0 26.527-21.581 48.109-48.108 48.109h-385.784c-26.527 0-48.108-21.582-48.108-48.109v-385.782c0-26.527 21.581-48.109 48.108-48.109h385.783c26.528 0 48.109 21.582 48.109 48.109z"/><path d="m263.5 407v-314c0-4.142-3.357-7.5-7.5-7.5s-7.5 3.358-7.5 7.5v314c0 4.142 3.357 7.5 7.5 7.5s7.5-3.358 7.5-7.5z"/><path d="m76.211 221.083v64.502c0 10.665 8.322 19.402 18.81 20.114l6.122 103.886c.604 10.273 9.14 18.321 19.432 18.321h26.125c10.292 0 18.827-8.048 19.432-18.32l6.122-103.887c10.489-.711 18.81-9.448 18.81-20.114v-12.564c0-4.142-3.357-7.5-7.5-7.5s-7.5 3.358-7.5 7.5v12.564c0 2.858-2.325 5.183-5.183 5.183h-74.486c-2.858 0-5.184-2.325-5.184-5.183v-64.502c0-23.395 19.032-42.427 42.427-42.427s42.427 19.033 42.427 42.427v16.876c0 4.142 3.357 7.5 7.5 7.5s7.5-3.358 7.5-7.5v-16.876c0-22.702-13.243-42.366-32.408-51.682 8.278-7.078 13.54-17.585 13.54-29.304 0-21.261-17.297-38.559-38.559-38.559s-38.559 17.297-38.559 38.559c0 11.719 5.262 22.227 13.54 29.304-19.165 9.315-32.408 28.98-32.408 51.682zm81.012 84.685-6.066 102.936c-.139 2.356-2.097 4.202-4.457 4.202h-26.125c-2.36 0-4.318-1.846-4.457-4.203l-6.066-102.935zm-23.585-189.23c12.99 0 23.559 10.568 23.559 23.559s-10.568 23.559-23.559 23.559-23.559-10.568-23.559-23.559 10.568-23.559 23.559-23.559z"/><path d="m300.572 221.083v57.855l-22.378 47.475c-4.91 10.418 2.699 22.383 14.194 22.383h29.534l3.582 60.79c.606 10.272 9.142 18.32 19.433 18.32h26.125c10.292 0 18.827-8.048 19.432-18.32l3.582-60.789h29.535c11.516 0 19.095-11.985 14.194-22.383l-22.379-47.478v-57.853c0-22.702-13.243-42.366-32.408-51.682 8.278-7.078 13.54-17.585 13.54-29.304 0-21.261-17.297-38.559-38.559-38.559s-38.559 17.297-38.559 38.559c0 11.719 5.262 22.226 13.539 29.304-19.164 9.315-32.407 28.979-32.407 51.682zm74.948 187.62c-.139 2.356-2.097 4.202-4.457 4.202h-26.125c-2.361 0-4.319-1.846-4.458-4.203l-3.53-59.906h42.1zm48.717-75.894c.049.103.162.344-.041.665-.204.322-.471.322-.585.322h-131.222c-.114 0-.381 0-.585-.322-.203-.321-.09-.562-.041-.666l21.067-44.694h90.341zm-66.237-216.271c12.99 0 23.559 10.568 23.559 23.559s-10.569 23.558-23.559 23.558-23.559-10.568-23.559-23.559 10.569-23.558 23.559-23.558zm0 62.117c23.395 0 42.427 19.033 42.427 42.427v52.032h-84.854v-52.032c-.001-23.394 19.032-42.427 42.427-42.427z"/><path d="m470.5 130.16c-4.143 0-7.5 3.358-7.5 7.5v311.231c0 7.78-6.329 14.109-14.109 14.109h-385.782c-7.78 0-14.109-6.329-14.109-14.109v-39.36c0-4.142-3.357-7.5-7.5-7.5s-7.5 3.358-7.5 7.5v39.36c0 16.051 13.059 29.109 29.109 29.109h385.781c16.051 0 29.11-13.058 29.11-29.109v-311.231c0-4.142-3.357-7.5-7.5-7.5z"/><path d="m448.891 34h-385.782c-16.05 0-29.109 13.058-29.109 29.109v311.36c0 4.142 3.357 7.5 7.5 7.5s7.5-3.358 7.5-7.5v-311.36c0-7.78 6.329-14.109 14.109-14.109h385.781c7.781 0 14.11 6.329 14.11 14.109v39.488c0 4.142 3.357 7.5 7.5 7.5s7.5-3.358 7.5-7.5v-39.488c0-16.051-13.059-29.109-29.109-29.109z"/></g></svg>