<svg id="Capa_1" enable-background="new 0 0 512.943 512.943" height="512" viewBox="0 0 512.943 512.943" width="512" xmlns="http://www.w3.org/2000/svg"><g><g><path d="m256.473 7.5h-.002c-114.794 0-207.854 93.059-207.855 207.855 0 34.192 10.564 66.003 29.427 94.352 46.967 70.585 113.149 128.881 170.402 191.354.098.107.604.659 1.318 1.438 3.572 3.897 9.708 3.932 13.322.075.766-.817 1.314-1.401 1.415-1.512 57.252-62.474 123.434-120.77 170.402-191.354 18.863-28.349 29.428-60.159 29.427-94.352-.002-114.797-93.062-207.856-207.856-207.856z" fill="#87e0ec"/></g><g><path d="m464.333 215.353c0 34.198-10.572 66.005-29.436 94.352-46.959 70.585-113.146 128.883-170.394 191.357-.103.111-.655.697-1.426 1.518-3.614 3.85-9.742 3.812-13.312-.079-.716-.781-1.224-1.333-1.322-1.439-3.843-4.186-7.717-8.363-11.631-12.519 56.472-61.123 121.014-118.523 167.065-187.746 18.864-28.347 29.436-60.154 29.436-94.352-.01-89.167-56.159-165.219-135.026-194.737 94.755 19.349 166.036 103.179 166.046 203.645z" fill="#2dd2e3"/></g><g><circle cx="256.469" cy="204.13" fill="#efe2dd" r="139.804"/></g><g><path d="m396.272 204.132c0 77.21-62.59 139.8-139.8 139.8-22.93 0-44.58-5.52-63.68-15.32 11.99 3.35 24.63 5.14 37.68 5.14 77.21 0 139.8-62.6 139.8-139.81 0-54.28-30.93-101.33-76.14-124.49 58.92 16.45 102.14 70.52 102.14 134.68z" fill="#e1d3ce"/></g><g><path d="m208.301 187.33v23.142c0 2.761 2.239 5 5 5h10.106c2.761 0 5 2.239 5 5v77.162c0 2.761 2.239 5 5 5h47.691c2.761 0 5-2.239 5-5v-110.304c0-2.761-2.239-5-5-5h-67.797c-2.761 0-5 2.238-5 5z" fill="#ff5e95"/></g><g><path d="m286.103 187.332v110.3c0 2.76-2.24 5-5 5h-10.4v-120.3h10.4c2.76 0 5 2.24 5 5z" fill="#ff3980"/></g><g><g><g><circle cx="256.471" cy="131.625" fill="#ff5e95" r="27.898"/></g><g><path d="m284.371 131.622c0 15.415-12.495 27.9-27.9 27.9-8.541 0-16.191-3.841-21.295-9.887 2.919 1.046 6.067 1.605 9.338 1.605 15.405 0 27.89-12.485 27.89-27.9 0-6.864-2.474-13.148-6.584-18.003 10.808 3.83 18.551 14.162 18.551 26.285z" fill="#ff3980"/></g></g><g><path d="m408.751 63.075c-40.675-40.675-94.755-63.075-152.28-63.075-40.754 0-80.43 11.438-114.739 33.079-33.377 21.054-60.337 50.805-77.966 86.036-1.854 3.705-.354 8.21 3.351 10.063 3.704 1.854 8.211.354 10.063-3.351 16.404-32.784 41.493-60.469 72.555-80.062 31.91-20.126 68.818-30.765 106.738-30.765 110.475 0 200.354 89.879 200.355 200.354 0 31.757-9.478 62.104-28.171 90.196-32.762 49.237-75.787 93.243-117.396 135.802-17.388 17.784-35.368 36.175-52.285 54.634l-1.366 1.459c-.384.41-.836.498-1.15.498-.003 0-.006 0-.009 0-.316-.002-.774-.092-1.158-.512l-1.318-1.438c-16.922-18.465-34.901-36.854-52.289-54.639-41.609-42.559-84.635-86.565-117.397-135.804-18.693-28.093-28.172-58.439-28.172-90.196 0-16.604 2.035-33.108 6.047-49.054 1.011-4.017-1.426-8.093-5.443-9.104-4.016-1.008-8.092 1.427-9.104 5.443-4.313 17.141-6.5 34.876-6.5 52.714 0 34.766 10.324 67.908 30.684 98.506 33.542 50.409 77.068 94.928 119.16 137.98 17.304 17.698 35.198 36 51.971 54.304l1.303 1.422c3.11 3.393 7.534 5.353 12.137 5.377h.088c4.57 0 8.976-1.908 12.1-5.244l.717-.765c.409-.437.682-.729.754-.807 16.759-18.288 34.653-36.59 51.958-54.29 42.092-43.052 85.617-87.569 119.158-137.978 20.36-30.598 30.684-63.74 30.683-98.506-.002-57.521-22.404-111.602-63.079-152.277z"/><path d="m389.231 248.7c3.989 1.109 8.124-1.237 9.228-5.229 3.526-12.754 5.314-25.989 5.314-39.341 0-81.224-66.08-147.304-147.304-147.304s-147.304 66.08-147.304 147.304 66.08 147.304 147.304 147.304c47.898 0 92.968-23.419 120.562-62.646 2.383-3.389 1.569-8.066-1.819-10.45-3.386-2.382-8.066-1.567-10.449 1.819-24.788 35.239-65.271 56.277-108.293 56.277-72.953 0-132.304-59.352-132.304-132.304s59.35-132.304 132.303-132.304 132.304 59.352 132.304 132.304c0 12-1.605 23.892-4.772 35.343-1.104 3.992 1.237 8.124 5.23 9.227z"/><path d="m233.406 310.134h47.69c6.893 0 12.5-5.607 12.5-12.5v-110.304c0-6.893-5.607-12.5-12.5-12.5h-67.796c-6.893 0-12.5 5.607-12.5 12.5v23.142c0 6.893 5.607 12.5 12.5 12.5h7.606v74.662c0 6.892 5.608 12.5 12.5 12.5zm-17.606-102.162v-18.142h62.796v105.304h-42.69v-74.662c0-6.893-5.607-12.5-12.5-12.5z"/><path d="m291.868 131.625c0-19.519-15.879-35.398-35.398-35.398s-35.398 15.88-35.398 35.398 15.879 35.397 35.398 35.397 35.398-15.878 35.398-35.397zm-55.796 0c0-11.248 9.15-20.398 20.398-20.398s20.398 9.15 20.398 20.398c0 11.247-9.15 20.397-20.398 20.397s-20.398-9.15-20.398-20.397z"/></g></g></g></svg>