<svg id="Layer_1" enable-background="new 0 0 512 512" height="512" viewBox="0 0 512 512" width="512" xmlns="http://www.w3.org/2000/svg"><g><path d="m435.767 512h-359.534c-42.102 0-76.233-34.131-76.233-76.233v-359.534c0-42.102 34.131-76.233 76.233-76.233h359.533c42.103 0 76.234 34.131 76.234 76.233v359.533c0 42.103-34.131 76.234-76.233 76.234z" fill="#3c87d0"/><path d="m76.233 481.095c-24.994 0-45.328-20.334-45.328-45.328v-359.534c0-24.994 20.334-45.328 45.328-45.328h359.533c24.994 0 45.328 20.334 45.328 45.328v359.533c0 24.994-20.334 45.328-45.328 45.328h-359.533z" fill="#5f99d7"/><g fill="#0268b4"><path d="m69.174 58.568c-2.929-2.929-7.678-2.929-10.606 0-2.929 2.929-2.929 7.678 0 10.606l4.003 4.003c1.464 1.464 3.384 2.197 5.303 2.197s3.839-.732 5.303-2.197c2.929-2.929 2.929-7.678 0-10.606z"/><path d="m449.43 438.823c-2.93-2.929-7.678-2.929-10.607 0s-2.929 7.678 0 10.606l4.003 4.003c1.465 1.464 3.385 2.197 5.304 2.197s3.839-.732 5.304-2.197c2.929-2.929 2.929-7.678 0-10.606z"/><path d="m444.126 75.374c1.919 0 3.839-.732 5.304-2.197l4.003-4.003c2.929-2.929 2.929-7.678 0-10.606-2.93-2.929-7.678-2.929-10.607 0l-4.003 4.003c-2.929 2.929-2.929 7.678 0 10.606 1.464 1.465 3.384 2.197 5.303 2.197z"/><path d="m62.571 438.823-4.003 4.003c-2.929 2.929-2.929 7.678 0 10.606 1.464 1.464 3.384 2.197 5.303 2.197s3.839-.732 5.303-2.197l4.003-4.003c2.929-2.929 2.929-7.678 0-10.606-2.928-2.929-7.677-2.929-10.606 0z"/></g><path d="m435.767 23.405h-359.534c-29.129 0-52.828 23.699-52.828 52.828v359.533c0 29.129 23.699 52.828 52.828 52.828h359.533c29.13 0 52.828-23.699 52.828-52.828v-359.533c.001-29.129-23.698-52.828-52.827-52.828zm37.828 412.362c0 20.858-16.97 37.828-37.828 37.828h-359.534c-20.858 0-37.828-16.97-37.828-37.828v-359.534c0-20.858 16.97-37.828 37.828-37.828h359.533c20.858 0 37.828 16.97 37.828 37.828v359.534z" fill="#eef5f6"/><path d="m263.225 112.305c-16.845-16.401-38.979-25.433-62.327-25.433h-66c-5.476 0-10.726 2.18-14.592 6.058-3.504 3.515-5.59 8.166-5.941 13.083-.043.435-.071.91-.071 1.463v237.03c0 11.379 9.224 20.604 20.604 20.604 11.379 0 20.604-9.224 20.604-20.604v-82.468c15.138-.082 35.027-.179 45.396-.179 23.348 0 45.482-9.032 62.327-25.433 17.073-16.624 26.477-38.664 26.477-62.06 0-23.397-9.403-45.437-26.477-62.061zm-62.327 108.347c-10.319 0-29.935.095-45.053.177-.082-15.543-.179-35.93-.179-46.463 0-8.863-.056-30.089-.103-46.287h45.334c25.8 0 47.597 21.197 47.597 46.287.001 25.089-21.796 46.286-47.596 46.286z" fill="#eef5f6"/><path d="m385.216 357.204-9.797-51.138c-.677-3.534-3.769-6.089-7.366-6.089h-87.545c-3.598 0-6.689 2.555-7.366 6.089l-9.797 51.138c-.779 4.068 1.887 7.998 5.955 8.777 4.059.778 7.997-1.887 8.777-5.955l8.63-45.049h75.146l8.63 45.049c.688 3.592 3.831 6.09 7.357 6.09.469 0 .943-.044 1.42-.135 4.069-.779 6.735-4.709 5.956-8.777z" fill="#deecf1"/><g fill="#deecf1"><path d="m282.746 429.039h-14.751c-5.03 0-9.108-4.078-9.108-9.108v-22.957h32.966v22.957c.001 5.03-4.077 9.108-9.107 9.108z"/><path d="m380.565 429.039h-12.69c-5.03 0-9.108-4.078-9.108-9.108v-22.957h30.905v22.957c.001 5.03-4.077 9.108-9.107 9.108z"/></g><path d="m394.21 402.254h-139.859c-5.189 0-9.395-4.206-9.395-9.395v-30.659c0-5.189 4.206-9.395 9.395-9.395h139.859c5.189 0 9.395 4.206 9.395 9.395v30.659c-.001 5.189-4.207 9.395-9.395 9.395z" fill="#eef5f6"/><path d="m394.21 352.806h-30.905c5.189 0 9.395 4.206 9.395 9.395v30.659c0 5.189-4.206 9.395-9.395 9.395h30.905c5.189 0 9.395-4.206 9.395-9.395v-30.66c-.001-5.188-4.207-9.394-9.395-9.394z" fill="#deecf1"/><g fill="#5f99d7"><path d="m282.809 370.03h-13.71c-4.143 0-7.5 3.358-7.5 7.5s3.357 7.5 7.5 7.5h13.71c4.143 0 7.5-3.358 7.5-7.5s-3.358-7.5-7.5-7.5z"/><path d="m379.463 370.03h-13.71c-4.143 0-7.5 3.358-7.5 7.5s3.357 7.5 7.5 7.5h13.71c4.143 0 7.5-3.358 7.5-7.5s-3.358-7.5-7.5-7.5z"/></g></g></svg>