<?xml version="1.0" standalone="no"?>
<!DOCTYPE svg PUBLIC "-//W3C//DTD SVG 20010904//EN"
 "http://www.w3.org/TR/2001/REC-SVG-20010904/DTD/svg10.dtd">
<svg version="1.0" xmlns="http://www.w3.org/2000/svg"
 width="1280.000000pt" height="1087.000000pt" viewBox="0 0 1280.000000 1087.000000"
 preserveAspectRatio="xMidYMid meet">
<metadata>
Created by potrace 1.15, written by Peter Selinger 2001-2017
</metadata>
<g transform="translate(0.000000,1087.000000) scale(0.100000,-0.100000)"
fill="#000000" stroke="none">
<path d="M4388 10855 c-103 -6 -189 -13 -191 -16 -2 -2 3 -82 12 -176 17 -184
17 -183 -29 -183 -20 0 -24 10 -55 145 -34 148 -32 146 -63 134 -162 -62 -418
-86 -549 -52 l-73 19 0 -134 0 -134 -207 6 c-115 4 -245 9 -290 12 l-83 6 -9
36 c-6 21 -22 88 -36 151 -14 63 -26 116 -28 117 -8 7 -733 18 -738 10 -4 -5
-10 -65 -13 -135 -4 -69 -9 -138 -12 -153 l-6 -28 -231 0 -232 0 -56 153 -57
152 -36 0 c-20 -1 -157 -2 -306 -3 l-270 -2 -90 -177 -91 -178 6 192 c3 105 1
194 -3 197 -5 3 -64 6 -133 7 l-124 1 -18 -68 c-70 -270 -60 -462 38 -713 l28
-70 51 -10 c28 -6 68 -13 89 -17 20 -3 37 -7 37 -9 0 -1 5 -27 10 -56 96 -502
102 -1788 13 -2900 l-17 -217 -127 -30 c-243 -59 -374 -130 -454 -246 l-40
-58 0 -361 0 -361 98 -30 c78 -23 98 -34 102 -50 24 -112 151 -1171 189 -1576
77 -804 100 -1288 100 -2050 1 -610 -15 -1037 -49 -1352 l-6 -47 98 -30 c171
-52 450 -130 601 -167 81 -19 155 -37 164 -40 13 -4 18 -18 20 -57 l3 -52 215
-12 c304 -16 290 -17 290 7 0 24 5 24 141 5 277 -38 426 -48 739 -48 230 0
354 4 459 16 125 15 145 15 155 2 10 -13 131 -11 406 8 34 2 34 2 32 48 l-3
46 98 16 c109 19 251 33 423 42 354 20 576 66 788 165 l83 39 -6 63 c-4 50
-35 651 -35 689 0 5 699 9 1725 9 l1725 0 0 -27 c-1 -16 -18 -183 -39 -373
-45 -399 -55 -345 84 -450 266 -201 633 -343 1097 -424 678 -119 1569 -93
2358 69 121 25 321 72 325 77 6 7 77 456 95 598 26 212 57 533 75 790 15 221
37 910 30 945 -2 11 -6 133 -9 270 l-5 250 39 23 c56 32 67 55 73 154 5 96 24
138 80 182 l31 25 -17 346 c-9 191 -19 350 -22 354 -2 5 -47 21 -100 36 l-96
29 7 1105 7 1106 72 71 c116 115 163 233 152 384 -3 41 -19 137 -36 213 -18
75 -36 169 -40 208 -5 39 -11 72 -13 74 -2 2 -54 12 -116 23 l-113 19 -45 -88
-45 -88 -94 -37 c-93 -36 -93 -37 -89 -68 48 -329 49 -306 -21 -306 -22 0 -64
-3 -92 -6 l-53 -7 0 201 0 201 -32 5 c-18 2 -130 9 -248 15 -118 6 -275 19
-348 28 -104 13 -135 14 -145 4 -18 -18 -14 -155 7 -239 10 -40 17 -74 15 -76
-2 -2 -122 -12 -266 -22 l-262 -19 -31 165 c-17 91 -33 173 -36 183 -5 16 -23
17 -237 15 l-231 -3 -23 -119 c-12 -65 -23 -120 -25 -121 -4 -5 -341 -25 -345
-22 -1 2 2 61 7 133 5 71 10 153 10 181 l0 53 -90 27 -90 28 -31 100 c-16 55
-32 108 -35 118 -4 12 -12 15 -27 12 -12 -3 -89 -17 -172 -30 -82 -14 -152
-29 -156 -33 -13 -14 -139 -341 -156 -403 -12 -42 -18 -98 -17 -164 0 -111 16
-166 73 -248 l32 -47 -136 -1022 c-75 -563 -138 -1029 -140 -1035 -2 -7 -15
-13 -29 -13 -14 0 -31 -6 -39 -14 -21 -21 -61 -8 -82 26 l-18 31 -136 -7 c-75
-4 -166 -9 -203 -13 l-67 -6 -14 -41 -14 -41 -194 -3 -194 -2 -41 -89 -41 -88
-229 24 c-126 13 -233 28 -238 33 -5 5 -30 49 -56 97 -30 57 -52 87 -61 84 -8
-2 -120 -5 -249 -7 -144 -3 -238 -8 -245 -15 -5 -5 -10 -39 -9 -74 1 -63 1
-63 -30 -69 -27 -4 -210 -25 -260 -29 -16 -2 -22 16 -46 131 -15 73 -30 135
-33 138 -7 7 -565 -20 -572 -28 -3 -3 -10 -50 -16 -104 -13 -133 -15 -138 -49
-172 -58 -58 -169 -62 -304 -11 -81 31 -78 25 -90 161 l-11 123 -190 3 c-104
1 -192 6 -196 10 -4 4 -10 199 -14 434 l-6 427 69 21 c69 21 71 22 92 72 70
163 63 354 -21 588 -11 30 -41 106 -67 169 l-47 115 -167 109 c-149 97 -168
112 -168 136 0 15 -7 151 -15 302 -56 1035 -43 2269 28 2769 l12 85 57 9 c57
8 58 9 83 60 36 75 49 148 42 247 -10 132 -74 357 -160 562 -18 43 10 41 -279
22z m-237 -1215 c10 -135 16 -246 15 -247 -1 -1 -87 -16 -192 -33 -104 -17
-204 -33 -221 -36 -24 -3 -33 -1 -33 8 0 8 -13 115 -30 238 -16 124 -30 234
-30 245 0 20 13 22 218 44 119 13 219 25 222 27 2 3 11 3 20 2 12 -3 18 -44
31 -248z m-2848 205 c73 -8 208 -21 300 -29 93 -8 170 -16 172 -18 6 -5 -47
-522 -54 -529 -7 -8 -273 22 -468 52 -141 22 -143 23 -143 48 0 42 31 444 36
469 5 26 -7 26 157 7z m1929 -265 c9 -118 17 -238 17 -266 l1 -50 -52 -3 c-29
-1 -102 -6 -163 -12 -151 -13 -752 -24 -847 -15 l-78 8 0 271 0 272 337 -3
c186 -1 412 2 503 7 91 4 188 8 215 7 l50 -1 17 -215z m972 -742 c11 -117 37
-520 34 -523 -6 -5 -377 -66 -553 -90 -231 -31 -563 -63 -735 -71 l-135 -6
-38 60 c-59 93 -150 186 -243 248 l-84 56 0 119 0 119 98 0 c350 0 956 51
1432 119 107 16 200 29 207 30 7 1 14 -23 17 -61z m-3029 -3 c140 -22 432 -53
625 -66 96 -6 176 -12 176 -13 1 0 4 -51 7 -111 l5 -111 -56 -22 c-94 -36
-181 -99 -295 -213 l-108 -108 -142 19 c-162 22 -356 55 -361 61 -2 3 39 558
43 577 1 4 13 2 106 -13z m1065 -635 c175 -33 322 -185 359 -370 6 -30 23
-199 36 -375 35 -459 84 -1082 95 -1205 5 -58 7 -106 5 -108 -2 -2 -76 2 -164
9 -89 6 -164 9 -167 7 -2 -3 -11 -83 -19 -178 -8 -95 -16 -174 -17 -175 -4 -3
-652 -64 -654 -62 -4 5 -29 1485 -28 1697 1 220 3 253 23 325 86 316 288 481
531 435z m2055 -683 c10 -152 16 -279 14 -281 -8 -8 -344 -53 -350 -47 -7 7
-34 570 -28 576 3 2 78 14 169 27 112 17 167 21 171 14 3 -6 14 -136 24 -289z
m-3135 228 c91 -14 168 -25 173 -25 8 0 10 -524 1 -567 l-6 -30 -81 14 c-45 7
-133 23 -196 35 l-113 21 5 51 c3 28 14 158 23 289 10 130 20 237 23 237 3 0
80 -11 171 -25z m2350 -335 l0 -299 -42 -5 c-127 -17 -384 -40 -453 -41 -9 0
-68 595 -60 603 2 2 65 8 141 14 77 5 198 15 269 22 72 7 133 11 138 9 4 -3 7
-139 7 -303z m841 -707 c0 -21 8 -150 18 -288 18 -246 16 -275 -13 -275 -6 0
-36 50 -66 110 -54 109 -55 110 -90 110 -19 0 -155 -7 -302 -17 l-268 -17 0
-193 c0 -106 -3 -193 -7 -193 -5 0 -120 -11 -257 -25 -137 -14 -251 -23 -254
-21 -4 5 -61 626 -62 672 0 20 7 22 103 28 266 18 855 87 1102 130 44 7 83 14
88 15 4 0 7 -16 8 -36z m-3302 -32 c64 -11 153 -25 199 -32 l82 -11 0 -225 0
-225 -22 4 c-13 3 -60 19 -106 36 -58 22 -84 27 -87 19 -2 -7 -13 -66 -24
-131 -12 -66 -22 -121 -25 -123 -5 -6 -210 29 -219 37 -5 4 3 120 17 256 13
137 28 286 31 332 6 64 10 82 22 82 9 0 68 -9 132 -19z m8528 -86 c195 -58
694 -142 1243 -210 69 -8 139 -17 155 -20 l30 -5 -14 -222 c-7 -123 -15 -225
-18 -228 -14 -15 -1093 130 -1358 183 l-160 32 2 40 c4 73 57 445 63 445 4 0
29 -7 57 -15z m2615 -455 c-3 -207 -3 -210 -25 -215 -60 -14 -325 -47 -432
-54 -66 -5 -173 -6 -237 -4 -116 6 -118 6 -118 29 0 33 19 319 26 379 l5 50
147 -8 c139 -8 349 2 507 22 33 5 76 9 95 10 l35 1 -3 -210z m-2542 -439 c124
-27 272 -57 330 -67 58 -10 106 -19 108 -20 4 -2 -79 -376 -85 -383 -7 -9
-626 129 -640 143 -6 5 0 60 29 289 6 50 15 87 22 87 6 0 112 -22 236 -49z
m920 -146 c270 -27 631 -36 1015 -25 198 5 415 10 483 10 l122 0 0 -183 0
-183 -132 -18 c-73 -10 -191 -24 -263 -32 l-130 -13 -25 31 c-97 121 -171 177
-282 214 -188 64 -448 2 -673 -161 l-80 -58 -104 12 c-58 7 -117 15 -131 18
l-26 5 33 191 c18 106 33 195 33 200 0 9 -10 9 160 -8z m-9816 -50 c713 -172
1519 -255 2201 -226 132 6 270 14 306 17 l66 6 6 -213 c3 -118 4 -215 3 -216
-2 -2 -142 -6 -312 -9 -683 -14 -1354 48 -2139 197 -116 22 -217 42 -226 45
-12 3 -20 43 -38 182 -12 97 -25 194 -28 215 -3 22 -1 37 5 37 5 0 76 -16 156
-35z m3819 -162 c4 -87 7 -199 7 -249 l0 -91 -172 -22 c-95 -12 -242 -30 -325
-40 l-153 -17 0 226 0 226 78 13 c121 20 422 80 477 95 88 25 81 35 88 -141z
m6754 -271 c85 -44 146 -132 178 -257 19 -76 20 -288 1 -558 -8 -111 -20 -285
-26 -387 -5 -102 -13 -213 -16 -247 l-6 -63 -41 79 -41 79 -135 6 c-75 4 -178
9 -228 12 l-93 6 0 -162 0 -162 -57 6 c-32 3 -121 11 -198 16 -76 6 -141 13
-143 15 -3 3 5 78 17 167 11 90 35 287 51 438 36 317 62 499 90 618 64 269
264 428 525 419 58 -3 92 -10 122 -25z m-1643 -158 c161 -33 474 -85 596 -99
30 -3 66 -8 80 -11 l26 -5 -18 -112 c-9 -62 -23 -152 -29 -201 l-11 -88 -61 7
c-206 23 -992 177 -1014 198 -4 5 43 358 52 384 3 8 33 4 106 -13 57 -14 180
-40 273 -60z m2505 -319 l-2 -184 -26 -5 c-36 -8 -350 -46 -375 -46 -21 0 -21
2 -12 205 l9 204 86 4 c47 1 139 4 204 5 l118 2 -2 -185z m-11332 -205 c269
-58 822 -150 905 -150 4 0 8 -135 8 -300 l0 -299 -86 -75 c-70 -62 -90 -74
-112 -71 -15 3 -117 18 -227 34 -263 39 -549 83 -552 85 -2 1 -9 87 -18 192
-20 250 -44 519 -51 572 -5 41 -4 42 18 37 13 -2 64 -14 115 -25z m3737 -82
c5 -57 14 -337 18 -563 l1 -90 -164 -27 c-262 -44 -629 -96 -834 -118 -104
-11 -204 -22 -222 -24 -28 -4 -42 5 -120 76 -221 202 -420 291 -687 305 l-119
6 7 96 c3 53 6 123 6 156 l0 60 333 1 c416 0 712 20 1122 75 162 21 463 72
560 94 97 21 93 23 99 -47z m2713 -97 c480 -4 875 -10 879 -14 4 -3 -1 -33
-10 -66 -19 -68 -22 -147 -11 -280 7 -88 6 -93 -11 -88 -11 3 -68 9 -129 13
-60 3 -119 10 -130 14 -15 6 -32 38 -59 109 l-38 101 -102 0 c-55 0 -179 3
-273 7 l-173 6 0 -116 0 -116 -52 -5 c-51 -5 -485 -26 -539 -26 -26 0 -27 3
-33 73 -4 40 -11 79 -16 87 -9 15 -618 152 -625 141 -1 -3 -15 -68 -31 -145
l-27 -138 -196 6 c-108 4 -226 9 -262 12 l-67 6 -6 61 c-4 34 -12 101 -18 149
l-10 86 -52 -4 c-28 -2 -120 -6 -203 -8 l-153 -5 0 80 0 81 738 -7 c405 -4
1129 -10 1609 -14z m2044 -15 c220 -49 460 -92 709 -127 118 -17 216 -32 218
-33 1 -2 -9 -85 -23 -185 -14 -101 -25 -188 -25 -195 0 -11 -49 -12 -234 -8
l-234 5 -22 -74 c-12 -41 -23 -75 -25 -77 -2 -2 -55 25 -118 59 l-115 63 -6
45 c-18 132 0 110 -173 208 -85 48 -157 92 -160 99 -6 17 40 254 50 254 1 0
72 -15 158 -34z m2829 -311 l0 -124 -32 -6 c-18 -3 -78 -12 -133 -20 -54 -9
-100 -17 -101 -18 -1 -1 -8 -58 -15 -126 l-12 -123 -79 4 c-43 3 -80 7 -83 10
-6 5 13 444 21 496 l5 32 214 0 215 0 0 -125z m-3441 -536 c96 -53 112 -65
108 -83 -3 -12 -27 -169 -53 -351 -26 -181 -50 -333 -54 -338 -4 -4 -263 -4
-576 0 l-569 8 -6 55 c-15 137 -69 243 -179 355 l-69 70 2 165 2 165 350 5
c193 3 481 6 640 8 l291 2 113 -61z m-1989 -43 l0 -93 -79 -7 c-235 -19 -494
-132 -615 -267 -57 -63 -113 -175 -127 -254 -7 -33 -13 -66 -15 -72 -3 -10
-100 -13 -443 -13 l-439 0 -6 63 c-10 109 -37 710 -32 714 3 3 373 8 823 12
450 4 844 8 876 9 l57 2 0 -94z m-4102 43 c26 -6 90 -31 142 -56 80 -38 108
-58 175 -127 145 -147 198 -290 215 -581 15 -249 88 -1443 105 -1710 8 -126
15 -236 15 -245 0 -13 -23 -20 -112 -33 -376 -55 -799 -47 -1234 24 l-131 22
-7 296 c-18 831 -28 1576 -23 1680 13 277 124 491 325 622 145 95 381 143 530
108z m6588 -235 c209 -88 596 -204 797 -240 l37 -6 -1 -142 c-1 -77 -4 -151
-7 -163 l-7 -22 -130 34 c-180 46 -316 96 -483 176 -141 67 -326 172 -338 191
-8 13 7 218 16 218 4 0 56 -21 116 -46z m-4592 -156 c3 -35 10 -162 16 -283 5
-121 13 -268 16 -326 6 -99 5 -107 -12 -112 -74 -22 -969 -156 -978 -146 -5 4
-36 619 -36 700 l0 47 83 11 c286 41 618 102 807 150 41 10 80 19 87 20 7 1
13 -23 17 -61z m7669 -105 c2 -76 4 -139 2 -141 -7 -7 -144 -22 -385 -42 -140
-11 -272 -23 -292 -27 l-38 -6 0 141 c0 78 3 143 8 145 4 3 133 15 287 27 154
12 305 25 335 30 30 4 60 8 66 9 7 1 13 -45 17 -136z m-11367 67 c60 -11 170
-29 244 -40 196 -29 179 -22 168 -72 -5 -24 -12 -192 -15 -375 l-5 -332 -27 4
c-14 3 -123 19 -241 36 -118 16 -218 33 -221 37 -6 7 -22 762 -16 762 2 0 52
-9 113 -20z m6000 -34 c133 -36 240 -124 305 -254 l34 -66 0 -470 0 -471 -515
-3 c-283 -1 -519 0 -525 2 -10 4 -2 474 13 756 7 140 9 149 45 224 67 140 197
247 357 291 64 18 205 13 286 -9z m4354 -165 c0 -71 2 -136 6 -144 4 -11 -14
-18 -78 -31 -179 -35 -310 -47 -565 -53 l-263 -6 0 54 c0 30 3 104 6 164 l7
110 321 1 c237 1 344 5 411 16 50 9 105 16 123 17 l32 1 0 -129z m-2199 -172
c29 -17 97 -53 152 -80 87 -44 98 -53 93 -72 -2 -12 -17 -76 -32 -142 -14 -66
-27 -121 -29 -123 -7 -8 -267 157 -280 178 -9 14 25 270 36 270 4 0 32 -14 60
-31z m3212 -381 c-3 -90 -8 -166 -12 -169 -17 -17 -218 -46 -681 -99 -146 -16
-281 -32 -300 -36 -34 -5 -37 -3 -80 56 -72 100 -190 190 -302 230 -29 11 -46
20 -38 20 30 1 390 30 560 45 263 24 580 63 715 89 66 13 125 24 132 25 8 1
10 -42 6 -161z m-2402 67 c124 -26 270 -49 394 -61 l70 -7 -60 -17 c-131 -38
-284 -112 -399 -194 l-78 -57 -64 21 c-45 15 -64 27 -64 38 0 29 21 276 26
299 4 19 8 21 28 13 14 -5 79 -21 147 -35z m-1231 -37 c-1 -7 -18 -139 -38
-293 l-38 -280 -504 0 -505 0 -3 120 c-2 66 0 198 3 293 l7 172 539 0 c425 0
539 -3 539 -12z m-2791 -103 c-1 -44 -6 -168 -13 -275 l-11 -195 -387 -3
c-365 -2 -388 -1 -389 15 0 10 -8 133 -18 273 -10 140 -17 257 -15 260 1 3
189 5 418 5 l416 0 -1 -80z m3212 -227 c131 -88 283 -169 419 -224 52 -20 99
-41 103 -45 5 -4 -8 -104 -29 -223 -38 -215 -38 -217 -62 -211 -45 11 -231 97
-319 147 -97 55 -309 193 -317 207 -3 5 8 107 24 227 17 121 30 221 30 223 0
2 8 -3 19 -10 10 -8 70 -49 132 -91z m1644 47 c142 -36 246 -109 294 -207 26
-51 31 -73 31 -132 0 -61 -91 -1150 -106 -1262 l-5 -41 -102 -11 c-190 -21
-331 -24 -502 -13 -304 21 -625 87 -625 130 0 9 50 277 110 594 126 661 124
654 241 769 79 78 188 136 314 167 100 25 266 27 350 6z m1534 -392 c-4 -49
-13 -145 -20 -215 l-11 -127 -47 -10 c-69 -16 -171 -28 -441 -56 -135 -14
-280 -30 -324 -36 -43 -5 -80 -9 -82 -7 -2 2 3 94 11 203 8 110 15 210 15 221
0 29 -25 25 525 74 127 12 255 25 285 29 105 16 97 23 89 -76z m-7558 75 c0
-2 8 -119 17 -261 l17 -259 -81 -44 c-90 -49 -254 -119 -354 -152 -87 -29
-572 -163 -575 -160 -8 10 -31 684 -24 689 5 3 51 11 101 18 215 29 633 109
783 150 63 17 114 25 116 19z m-3646 -128 c131 -22 242 -40 247 -40 4 0 8
-151 8 -336 0 -265 -3 -335 -12 -331 -7 2 -40 12 -73 21 -112 32 -420 128
-435 136 -14 7 -14 29 -3 192 6 101 15 231 18 291 4 59 8 107 9 107 1 0 110
-18 241 -40z m7833 -334 c116 -88 265 -179 419 -253 87 -42 159 -77 160 -78 2
-1 -11 -75 -27 -166 -16 -90 -30 -167 -30 -172 0 -4 -93 40 -208 97 -195 98
-332 185 -390 249 l-24 25 16 154 c9 84 16 161 16 171 0 24 5 22 68 -27z
m3288 -373 c-3 -16 -15 -95 -27 -178 -12 -82 -26 -154 -30 -158 -4 -5 -186
-37 -405 -73 -220 -35 -407 -65 -416 -68 -21 -5 -21 -19 -8 198 13 202 15 213
38 220 9 3 183 19 385 36 203 17 387 35 410 40 23 4 46 8 50 9 5 1 6 -11 3
-26z"/>
</g>
</svg>
